<?xml version="1.0" encoding="UTF-8"?>
<svg width="113px" height="24px" viewBox="0 0 113 24" version="1.1" xmlns="http://www.w3.org/2000/svg" xmlns:xlink="http://www.w3.org/1999/xlink">
    <!-- Generator: sketchtool 41 (35326) - http://www.bohemiancoding.com/sketch -->
    <title>C53E74BD-69E5-445F-B1CA-B80D53BF4795</title>
    <desc>Created with sketchtool.</desc>
    <defs></defs>
    <g id="Acronis-forum" stroke="none" stroke-width="1" fill="none" fill-rule="evenodd">
        <g id="Career-page" transform="translate(-116.000000, -35.000000)" fill="#FFFFFF">
            <g id="Group-3" transform="translate(116.000000, 35.000000)">
                <g id="acronis_logo-[Converted].eps">
                    <g id="Layer_1">
                        <g id="Group">
                            <path d="M32.9320292,9.44005839 C35.2353285,9.44005839 36.7504818,10.6523212 37.4568175,12.653781 L40.9159708,12.653781 C40.0658102,8.808 37.0101022,6.39661314 32.9320292,6.39661314 C28.0680876,6.39661314 24.400292,10.1891387 24.400292,15.1350657 C24.400292,20.0813431 28.0682628,23.7482628 32.9320292,23.7482628 C37.0101022,23.7482628 39.9682336,21.2272117 40.9159708,17.4907445 L37.4569927,17.4907445 C36.7643212,19.4025109 35.2353285,20.7048175 32.9320292,20.7048175 C29.7375766,20.7048175 27.7580146,18.4144818 27.7580146,15.1350657 C27.7581898,11.856 29.7375766,9.44005839 32.9320292,9.44005839 L32.9320292,9.44005839 Z" id="Shape"></path>
                            <path d="M47.2062482,8.28210219 L47.0487591,8.29033577 L46.8609635,6.63678832 L43.9658978,6.63678832 L43.9658978,23.811854 L47.1981898,23.811854 L47.1981898,12.9386277 C47.1981898,10.6460146 48.96,9.39976642 51.2781898,9.39976642 C51.780438,9.39976642 51.8811679,9.44005839 51.8811679,9.44005839 L51.8811679,6.29010219 C51.8811679,6.29010219 51.6732263,6.23071533 51.2781898,6.23071533 C50.2891095,6.23036496 48.456,6.64817518 47.2062482,8.28210219 L47.2062482,8.28210219 Z" id="Shape"></path>
                            <path d="M81.8291387,6.23036496 C78.9514161,6.23036496 77.1952117,7.4610219 76.423708,8.28210219 L76.266219,8.29033577 L76.0784234,6.63678832 L73.183708,6.63678832 L73.183708,23.811854 L76.4156496,23.811854 L76.4156496,13.0009927 C76.4156496,10.5966131 78.5831825,9.33670073 81.2456058,9.33670073 C83.5338394,9.33670073 85.1588321,10.4788905 85.1588321,12.8629489 L85.1588321,23.811854 L88.3907737,23.811854 L88.3907737,12.6586861 C88.3905985,7.91211679 85.0454891,6.23036496 81.8291387,6.23036496 L81.8291387,6.23036496 Z" id="Shape"></path>
                            <rect id="Rectangle-path" x="92.5417226" y="6.63661314" width="3.23194161" height="17.1750657"></rect>
                            <path d="M61.3893723,6.39661314 C56.4812847,6.39661314 52.7796788,10.1262482 52.7796788,15.0723504 C52.7796788,20.0186277 56.4814599,23.748438 61.3893723,23.748438 C66.2983358,23.748438 70.0001168,20.0186277 70.0001168,15.0723504 C70.0001168,10.1262482 66.2983358,6.39661314 61.3893723,6.39661314 L61.3893723,6.39661314 Z M61.3893723,20.6421022 C58.2007007,20.6421022 56.1374015,18.2997372 56.1374015,15.0723504 C56.1374015,11.8451387 58.2007007,9.44005839 61.3893723,9.44005839 C64.5789197,9.44005839 66.6423942,11.8451387 66.6423942,15.0723504 C66.6423942,18.2997372 64.5789197,20.6421022 61.3893723,20.6421022 L61.3893723,20.6421022 Z" id="Shape"></path>
                            <path d="M106.175474,13.3762336 C102.989431,12.6791825 103.115036,11.8912117 103.115036,11.1899562 C103.115036,10.3490803 104.063124,9.28624818 105.604204,9.28624818 C106.901255,9.28624818 108.25892,9.93056934 108.25892,12.1010803 L111.36508,12.1010803 C111.476496,8.59217518 109.162511,6.43147445 105.604029,6.43147445 C102.449343,6.43147445 99.8829197,8.62248175 99.8829197,11.315562 C99.8829197,14.7112993 102.588613,15.7690511 105.511358,16.4103942 C108.612788,17.0909781 108.873285,18.0560584 108.873285,18.7359416 C108.873285,20.0373723 107.553285,21.1445255 105.71965,21.1445255 C104.40035,21.1445255 102.391182,20.3146861 102.391182,17.8207883 L99.2850219,17.8207883 C99.0937226,21.7380438 101.930978,23.9992993 105.71965,23.9992993 C109.324029,23.9992993 112.168117,21.6823358 112.168117,18.6101606 C112.168292,15.1289343 109.076672,14.0109197 106.175474,13.3762336 L106.175474,13.3762336 Z" id="Shape"></path>
                            <path d="M10.7364088,0.086540146 L0.0515036496,23.8116788 L3.45827737,23.8116788 L5.55223358,19.0221898 L18.8734599,19.0221898 L20.9675912,23.8116788 L24.374365,23.8116788 L13.6894599,0.086540146 L10.7364088,0.086540146 L10.7364088,0.086540146 Z M12.1450511,4.13745985 L12.2872993,4.13745985 L12.4486423,4.57156204 L15.4766715,11.479708 L8.9490219,11.479708 L11.9870365,4.57156204 L12.1450511,4.13745985 L12.1450511,4.13745985 Z M6.75135766,16.3597664 L7.74989781,14.1423066 L16.6756204,14.1423066 L17.6743358,16.3597664 L6.75135766,16.3597664 L6.75135766,16.3597664 Z" id="Shape"></path>
                        </g>
                    </g>
                </g>
            </g>
        </g>
    </g>
</svg>