<svg id="Layer_1" data-name="Layer 1" xmlns="http://www.w3.org/2000/svg" viewBox="0 0 65 65"><defs><style>.cls-1{fill:#231f20;}</style></defs><title>a</title><path class="cls-1" d="M639.35,118.79a23.88,23.88,0,1,0,23.88,23.88A23.88,23.88,0,0,0,639.35,118.79Zm0,45.06a21.18,21.18,0,1,1,21.18-21.18A21.2,21.2,0,0,1,639.35,163.85Z" transform="translate(-606.85 -110.17)"/><path class="cls-1" d="M671.69,151.83l-1.52-6.16a14.61,14.61,0,0,1-.33-3.31,14.38,14.38,0,0,1,.29-3.07l1.45-6.18h0a5.69,5.69,0,0,0,.14-1.27,6.83,6.83,0,0,0-.81-3.16,6.2,6.2,0,0,0-2.22-2.41L663.26,123a14.4,14.4,0,0,1-2.48-2,14.59,14.59,0,0,1-2.05-2.46l-3.34-5.39A6.17,6.17,0,0,0,653,111a6.82,6.82,0,0,0-3.13-.79,5.6,5.6,0,0,0-1.34.16l-6.16,1.52a14.79,14.79,0,0,1-3.31.33,14.3,14.3,0,0,1-3.07-.29l-6.18-1.45a5.6,5.6,0,0,0-1.27-.14,6.8,6.8,0,0,0-3.16.81,6.16,6.16,0,0,0-2.41,2.22l-3.28,5.43a14.68,14.68,0,0,1-2,2.49,14.46,14.46,0,0,1-2.46,2l-5.39,3.34a6.15,6.15,0,0,0-2.17,2.4,6.82,6.82,0,0,0-.79,3.13,5.62,5.62,0,0,0,.16,1.34l1.53,6.16a15,15,0,0,1,.33,3.31,14.41,14.41,0,0,1-.29,3.07l-1.45,6.18h0a5.62,5.62,0,0,0-.15,1.28,6.83,6.83,0,0,0,.81,3.16,6.22,6.22,0,0,0,2.22,2.41l5.44,3.28a14.68,14.68,0,0,1,2.49,2,14.53,14.53,0,0,1,2,2.46l3.35,5.39a6.16,6.16,0,0,0,2.4,2.17,6.83,6.83,0,0,0,3.13.79,5.55,5.55,0,0,0,1.34-.16l6.16-1.52a14.71,14.71,0,0,1,3.31-.33,14.29,14.29,0,0,1,3.07.29l6.18,1.45a5.55,5.55,0,0,0,1.27.14,6.82,6.82,0,0,0,3.16-.81,6.19,6.19,0,0,0,2.41-2.22l3.28-5.43A16.48,16.48,0,0,1,663.5,162l5.39-3.34a6.14,6.14,0,0,0,2.17-2.4,6.85,6.85,0,0,0,.79-3.13A10.82,10.82,0,0,0,671.69,151.83Zm-3,3.22a3.48,3.48,0,0,1-1.2,1.36l-5.39,3.34a19.13,19.13,0,0,0-5.37,5.44l-3.28,5.43a3.5,3.5,0,0,1-1.36,1.22,4.13,4.13,0,0,1-1.89.49,2.87,2.87,0,0,1-.65-.07l-6.18-1.45a16.82,16.82,0,0,0-3.69-.36,17.22,17.22,0,0,0-4,.41l-6.16,1.52a2.82,2.82,0,0,1-.69.08A4.13,4.13,0,0,1,627,172a3.5,3.5,0,0,1-1.36-1.2l-3.35-5.39a19.17,19.17,0,0,0-5.44-5.37l-5.43-3.28a3.49,3.49,0,0,1-1.22-1.36,4.12,4.12,0,0,1-.49-1.89,2.57,2.57,0,0,1,.07-.65h0l1.45-6.18a16.94,16.94,0,0,0,.36-3.69,17.42,17.42,0,0,0-.41-4l-1.53-6.16a2.86,2.86,0,0,1-.08-.69,4.11,4.11,0,0,1,.48-1.88,3.5,3.5,0,0,1,1.2-1.36l5.39-3.34a19.14,19.14,0,0,0,5.37-5.44l3.28-5.43a3.5,3.5,0,0,1,1.36-1.22,4.12,4.12,0,0,1,1.89-.49,2.82,2.82,0,0,1,.65.07l6.18,1.45a16.84,16.84,0,0,0,3.69.36,17.4,17.4,0,0,0,4-.41l6.16-1.52a2.81,2.81,0,0,1,.69-.08,4.17,4.17,0,0,1,1.87.48,3.5,3.5,0,0,1,1.36,1.2l3.34,5.39a19.09,19.09,0,0,0,5.44,5.37l5.43,3.28a3.48,3.48,0,0,1,1.22,1.36,4.13,4.13,0,0,1,.49,1.89,2.91,2.91,0,0,1-.07.66h0l-1.45,6.18a16.8,16.8,0,0,0-.36,3.69,17.26,17.26,0,0,0,.41,4l1.53,6.16h0a2.85,2.85,0,0,1,.08.69A4.13,4.13,0,0,1,668.67,155Z" transform="translate(-606.85 -110.17)"/><path class="cls-1" d="M638.14,132.92l-8.79,19.51h2.8l1.72-3.94h11l1.72,3.94h2.8l-8.79-19.51Zm1.16,3.33h.12l.13.36,2.49,5.68h-5.37l2.5-5.68Zm-4.44,10.05.82-1.82H643l.82,1.82Z" transform="translate(-606.85 -110.17)"/></svg>